<svg xmlns="http://www.w3.org/2000/svg" width="100" height="80" viewBox="0 0 100 80">
  <g id="Grupo_356" data-name="Grupo 356" transform="translate(-36.17 -323.767)">
    <path id="Caminho_872" data-name="Caminho 872" d="M86.237,323.767a2.682,2.682,0,0,1,1.484.509l47.5,37.5a2.585,2.585,0,0,1,.43,3.554,2.626,2.626,0,0,1-3.556.391L86.159,329.472,40.222,365.72a2.516,2.516,0,0,1-3.125-3.944L54.91,347.713V326.267a2.5,2.5,0,0,1,2.5-2.5h10a2.5,2.5,0,0,1,2.5,2.5v9.609l14.686-11.6a2.85,2.85,0,0,1,1.642-.509Zm-21.328,5h-5v15l5-3.944Zm52.5,28.632,5,3.946v39.921a2.5,2.5,0,0,1-2.5,2.5H98.658a2.5,2.5,0,0,1-2.5-2.5v-12.5a10,10,0,0,0-20,0v12.5a2.5,2.5,0,0,1-2.5,2.5H52.41a2.5,2.5,0,0,1-2.5-2.5V361.346l5-3.946v41.367H71.159v-10a15,15,0,0,1,30,0v10h16.251V357.4Z" transform="translate(0 0)" fill="#04423e"/>
  </g>
</svg>
